# xmcd CD database file generated by Grip 3.3.1
# 
# Track frame offsets:
#       150
#       20842
#       36484
#       59295
#       79610
#       100532
#       122632
#       142632
#       161853
#       174430
#       189616
# 
# Disc length: 2970 seconds
# 
# Revision: 1
# Processed by: cddbd v1.5.2PL0 Copyright (c) Steve Scherf et al.
# Submitted via: Grip 3.3.1
# 
DISCID=8b0b980b
DTITLE=Various Artist - Ruf 10th Anniversary Sampler 2004 Where Blues Crosses O
DTITLE=ver
DYEAR=2004
DGENRE=Blues
TTITLE0=Imperial Crowns - Lil' Death
TTITLE1=Ana Popovic - Comfort To The Soul
TTITLE2=Omar and The Howlers - Boogie Man
TTITLE3=Walter Trout - Jericho Road
TTITLE4=Michael Hill's Blues Mob - Something In The Sky
TTITLE5=Aynsley Lister - Sometimes It Gets 2 Me
TTITLE6=Canned Heat - It Don't Matter
TTITLE7=Luther Allison - I Wanna Be With You
TTITLE8=Candye Kane - I Got A Secret
TTITLE9=Friend'n Fellow - Black Night
TTITLE10=Ian Parker - Awake At Night
EXTD=
EXTT0=
EXTT1=
EXTT2=
EXTT3=
EXTT4=
EXTT5=
EXTT6=
EXTT7=
EXTT8=
EXTT9=
EXTT10=
PLAYORDER=
